HIERARCHY
ROOT Hips
{
	OFFSET 0.000000 103.266502 0.000000
	CHANNELS 6 Xposition Yposition Zposition Xrotation Yrotation Zrotation 
	JOINT Spine
	{
		OFFSET -0.002400 12.777504 0.315300
		CHANNELS 3 Xrotation Yrotation Zrotation
		JOINT Spine1
		{
			OFFSET -0.002067 5.816869 0.032633
			CHANNELS 3 Xrotation Yrotation Zrotation
			JOINT Spine1_split
			{
				OFFSET -0.002067 5.816869 0.032633
				CHANNELS 3 Xrotation Yrotation Zrotation
				JOINT Spine2
				{
					OFFSET -0.002067 5.816869 0.032633
					CHANNELS 3 Xrotation Yrotation Zrotation
					JOINT Neck
					{
						OFFSET -0.003700 21.199493 -0.826900
						CHANNELS 3 Xrotation Yrotation Zrotation
						JOINT Head
						{
							OFFSET 0.000000 20.442200 4.834800
							CHANNELS 3 Xrotation Yrotation Zrotation
							JOINT HeadTop_End
							{
								OFFSET 0.000000 34.668396 4.968400
								CHANNELS 3 Xrotation Yrotation Zrotation
								End Site
								{
									OFFSET 0.000000 0.000000 0.000000
								}
							}
						}
					}
					JOINT LeftShoulder
					{
						OFFSET 3.288150 8.794197 -1.372250
						CHANNELS 3 Xrotation Yrotation Zrotation
						JOINT LeftShoulder_split
						{
							OFFSET 3.288150 8.794197 -1.372250
							CHANNELS 3 Xrotation Yrotation Zrotation
							JOINT LeftArm
							{
								OFFSET 11.953299 -2.279007 -0.146200
								CHANNELS 3 Xrotation Yrotation Zrotation
								JOINT LeftForeArm
								{
									OFFSET 18.448900 0.000000 0.000000
									CHANNELS 3 Xrotation Yrotation Zrotation
									JOINT LeftHand
									{
										OFFSET 29.527798 0.000000 0.000000
										CHANNELS 3 Xrotation Yrotation Zrotation
										JOINT LeftHandThumb1
										{
											OFFSET 10.739754 -2.369614 9.225399
											CHANNELS 3 Xrotation Yrotation Zrotation
											JOINT LeftHandThumb2
											{
												OFFSET 4.926170 -2.844131 2.844125
												CHANNELS 3 Xrotation Yrotation Zrotation
												JOINT LeftHandThumb3
												{
													OFFSET 4.614891 -2.664413 2.664409
													CHANNELS 3 Xrotation Yrotation Zrotation
													JOINT LeftHandThumb4
													{
														OFFSET 4.432465 -2.559082 2.559083
														CHANNELS 3 Xrotation Yrotation Zrotation
														End Site
														{
															OFFSET 0.000000 0.000000 0.000000
														}
													}
												}
											}
										}
										JOINT LeftHandIndex1
										{
											OFFSET 26.467674 0.187653 6.405298
											CHANNELS 3 Xrotation Yrotation Zrotation
											JOINT LeftHandIndex2
											{
												OFFSET 8.792900 0.000000 0.000000
												CHANNELS 3 Xrotation Yrotation Zrotation
												JOINT LeftHandIndex3
												{
													OFFSET 10.075203 0.000000 0.000000
													CHANNELS 3 Xrotation Yrotation Zrotation
													End Site
													{
														OFFSET 0.000000 0.000000 0.000000
													}
												}
											}
										}
										JOINT LeftHandMiddle1
										{
											OFFSET 25.764404 0.000000 0.000000
											CHANNELS 3 Xrotation Yrotation Zrotation
											JOINT LeftHandMiddle2
											{
												OFFSET 9.393974 0.000000 0.000000
												CHANNELS 3 Xrotation Yrotation Zrotation
												JOINT LeftHandMiddle3
												{
													OFFSET 10.771950 0.000000 0.000000
													CHANNELS 3 Xrotation Yrotation Zrotation
													End Site
													{
														OFFSET 0.000000 0.000000 0.000000
													}
												}
											}
										}
										JOINT LeftHandRing1
										{
											OFFSET 24.660927 0.144547 -6.225808
											CHANNELS 3 Xrotation Yrotation Zrotation
											JOINT LeftHandRing2
											{
												OFFSET 9.393799 0.000000 0.000000
												CHANNELS 3 Xrotation Yrotation Zrotation
												JOINT LeftHandRing3
												{
													OFFSET 9.928497 0.000000 0.000000
													CHANNELS 3 Xrotation Yrotation Zrotation
													End Site
													{
														OFFSET 0.000000 0.000000 0.000000
													}
												}
											}
										}
										JOINT LeftHandPinky1
										{
											OFFSET 23.655350 0.125290 -12.815412
											CHANNELS 3 Xrotation Yrotation Zrotation
											JOINT LeftHandPinky2
											{
												OFFSET 8.425102 0.000000 0.000000
												CHANNELS 3 Xrotation Yrotation Zrotation
												JOINT LeftHandPinky3
												{
													OFFSET 8.147003 0.000000 0.000000
													CHANNELS 3 Xrotation Yrotation Zrotation
													End Site
													{
														OFFSET 0.000000 0.000000 0.000000
													}
												}
											}
										}
									}
								}
							}
						}
					}
					JOINT RightShoulder
					{
						OFFSET -3.249400 8.794197 -1.372250
						CHANNELS 3 Xrotation Yrotation Zrotation
						JOINT RightShoulder_split
						{
							OFFSET -3.249400 8.794197 -1.372250
							CHANNELS 3 Xrotation Yrotation Zrotation
							JOINT RightArm
							{
								OFFSET -11.953299 -2.279007 -0.146200
								CHANNELS 3 Xrotation Yrotation Zrotation
								JOINT RightForeArm
								{
									OFFSET -18.448900 0.000000 0.000000
									CHANNELS 3 Xrotation Yrotation Zrotation
									JOINT RightHand
									{
										OFFSET -29.527802 0.000000 0.000000
										CHANNELS 3 Xrotation Yrotation Zrotation
										JOINT RightHandThumb1
										{
											OFFSET -10.739754 -2.369614 9.225399
											CHANNELS 3 Xrotation Yrotation Zrotation
											JOINT RightHandThumb2
											{
												OFFSET -4.926170 -2.844131 2.844125
												CHANNELS 3 Xrotation Yrotation Zrotation
												JOINT RightHandThumb3
												{
													OFFSET -4.614891 -2.664413 2.664409
													CHANNELS 3 Xrotation Yrotation Zrotation
													JOINT RightHandThumb4
													{
														OFFSET -4.432465 -2.559082 2.559083
														CHANNELS 3 Xrotation Yrotation Zrotation
														End Site
														{
															OFFSET 0.000000 0.000000 0.000000
														}
													}
												}
											}
										}
										JOINT RightHandIndex1
										{
											OFFSET -26.467674 0.187653 6.405298
											CHANNELS 3 Xrotation Yrotation Zrotation
											JOINT RightHandIndex2
											{
												OFFSET -8.792900 0.000000 0.000000
												CHANNELS 3 Xrotation Yrotation Zrotation
												JOINT RightHandIndex3
												{
													OFFSET -10.075203 0.000000 0.000000
													CHANNELS 3 Xrotation Yrotation Zrotation
													End Site
													{
														OFFSET 0.000000 0.000000 0.000000
													}
												}
											}
										}
										JOINT RightHandMiddle1
										{
											OFFSET -25.764404 0.000000 0.000000
											CHANNELS 3 Xrotation Yrotation Zrotation
											JOINT RightHandMiddle2
											{
												OFFSET -9.393974 0.000000 0.000000
												CHANNELS 3 Xrotation Yrotation Zrotation
												JOINT RightHandMiddle3
												{
													OFFSET -10.771950 0.000000 0.000000
													CHANNELS 3 Xrotation Yrotation Zrotation
													End Site
													{
														OFFSET 0.000000 0.000000 0.000000
													}
												}
											}
										}
										JOINT RightHandRing1
										{
											OFFSET -24.660927 0.144547 -6.225808
											CHANNELS 3 Xrotation Yrotation Zrotation
											JOINT RightHandRing2
											{
												OFFSET -9.393799 0.000000 0.000000
												CHANNELS 3 Xrotation Yrotation Zrotation
												JOINT RightHandRing3
												{
													OFFSET -9.928497 0.000000 0.000000
													CHANNELS 3 Xrotation Yrotation Zrotation
													End Site
													{
														OFFSET 0.000000 0.000000 0.000000
													}
												}
											}
										}
										JOINT RightHandPinky1
										{
											OFFSET -23.655350 0.125290 -12.815412
											CHANNELS 3 Xrotation Yrotation Zrotation
											JOINT RightHandPinky2
											{
												OFFSET -8.425102 0.000000 0.000000
												CHANNELS 3 Xrotation Yrotation Zrotation
												JOINT RightHandPinky3
												{
													OFFSET -8.147003 0.000000 0.000000
													CHANNELS 3 Xrotation Yrotation Zrotation
													End Site
													{
														OFFSET 0.000000 0.000000 0.000000
													}
												}
											}
										}
									}
								}
							}
						}
					}
				}
			}
		}
	}
	JOINT LeftUpLeg
	{
		OFFSET 11.394100 -6.187798 -0.413800
		CHANNELS 3 Xrotation Yrotation Zrotation
		JOINT LeftLeg
		{
			OFFSET 0.430247 -32.302673 3.732800
			CHANNELS 3 Xrotation Yrotation Zrotation
			JOINT LeftFoot
			{
				OFFSET -0.430247 -48.264931 -6.423300
				CHANNELS 3 Xrotation Yrotation Zrotation
				JOINT LeftToeBase
				{
					OFFSET 4.230900 -16.068199 23.438400
					CHANNELS 3 Xrotation Yrotation Zrotation
					JOINT LeftToe_End
					{
						OFFSET 4.510700 0.695400 19.974600
						CHANNELS 3 Xrotation Yrotation Zrotation
						End Site
						{
							OFFSET 0.000000 0.000000 0.000000
						}
					}
				}
			}
		}
	}
	JOINT RightUpLeg
	{
		OFFSET -11.333700 -6.187798 -0.413800
		CHANNELS 3 Xrotation Yrotation Zrotation
		JOINT RightLeg
		{
			OFFSET -0.430392 -32.302628 3.733000
			CHANNELS 3 Xrotation Yrotation Zrotation
			JOINT RightFoot
			{
				OFFSET 0.430392 -48.264973 -6.423500
				CHANNELS 3 Xrotation Yrotation Zrotation
				JOINT RightToeBase
				{
					OFFSET -4.230900 -16.068199 23.438400
					CHANNELS 3 Xrotation Yrotation Zrotation
					JOINT RightToe_End
					{
						OFFSET -4.510700 0.695400 19.974600
						CHANNELS 3 Xrotation Yrotation Zrotation
						End Site
						{
							OFFSET 0.000000 0.000000 0.000000
						}
					}
				}
			}
		}
	}
}
MOTION
Frames: 5
Frame Time: 0.016667
-2.521549 99.409714 3.050856 -6.527152 7.441638 -0.840014 2.716271 1.595006 2.841657 2.229757 0.462797 2.709336 0.000000 0.000000 0.000000 1.815967 0.462784 2.663381 12.069589 -2.397794 -0.979290 1.367183 -8.878460 -6.544920 0.000000 0.000000 0.000000 0.980234 -16.729754 -12.817463 0.000000 0.000000 0.000000 1.380166 -1.285204 -71.138701 0.000001 0.000002 0.000003 -34.595537 -2.769040 -5.684795 -0.945030 2.085472 4.986309 11.826379 25.404989 17.117653 -13.812407 3.560485 9.013174 0.000002 0.000001 0.000001 0.084272 -0.924059 -8.185780 0.267784 1.752622 -17.372876 0.000001 -0.000000 0.000000 -0.073346 2.742587 -16.488405 0.269697 1.758707 -17.435306 0.000000 0.000000 0.000000 0.084982 3.528582 -21.560631 0.386265 2.093844 -20.901998 -0.000002 -0.000000 0.000003 0.961167 5.610183 -27.583169 0.269774 1.758975 -17.437946 -0.000002 0.000000 -0.000001 0.966138 8.437344 16.887346 0.000000 0.000000 0.000000 28.204742 8.686316 58.059757 0.000002 3.688143 -0.000013 -18.173165 -1.917477 9.747769 -22.530612 4.903184 4.908387 9.518478 -27.760665 -21.071086 5.457368 -23.437463 -6.234843 -0.000001 -0.000001 -0.000000 1.062306 -0.350875 19.899457 1.041859 -2.937737 39.046983 0.000002 -0.000001 0.000002 0.381006 -4.016462 23.477887 1.260460 -3.188022 43.136534 -0.000003 -0.000000 -0.000001 -0.717281 -1.494731 23.600435 0.643375 -2.363856 30.447095 0.000003 -0.000001 -0.000001 1.085909 -5.686141 22.733443 0.336832 -1.740588 21.902868 -0.000000 -0.000001 0.000001 -18.153927 14.947995 12.598114 23.779432 1.203262 4.729140 -1.888697 -12.395582 -10.472242 -5.376457 0.000006 -0.000002 -0.000000 0.000001 0.000000 0.056470 -10.171312 5.700702 19.113501 -9.636918 -6.817608 -12.113808 -15.919651 3.784421 -6.948363 0.000000 0.000000 -0.000000 0.000000 0.000000 
-2.459416 99.483284 3.029281 -6.289542 6.906141 -0.917218 2.692106 1.569766 2.824407 2.274833 0.425904 2.707982 0.000000 0.000000 0.000000 1.839811 0.425766 2.655626 11.829165 -2.244497 -0.934816 1.105655 -8.174212 -6.247969 -0.000000 -0.000000 -0.000000 0.974911 -16.800881 -12.868814 0.000000 0.000000 0.000000 1.435871 -0.692808 -71.334291 -0.000001 -0.000001 0.000002 -33.995580 -2.404726 -5.540007 -0.740810 2.177756 4.903584 11.791446 25.381044 17.236271 -13.838943 3.597905 9.036791 0.000002 -0.000001 0.000000 0.101978 -0.894338 -8.243465 0.267745 1.752494 -17.371597 0.000001 0.000000 -0.000000 -0.055497 2.807219 -16.539170 0.269557 1.758280 -17.430940 -0.000001 -0.000000 -0.000000 0.092933 3.552173 -21.630321 0.386231 2.093764 -20.901224 0.000001 -0.000001 0.000001 0.984306 5.638673 -27.641094 0.269933 1.759479 -17.443115 -0.000001 0.000001 -0.000003 0.974203 8.465973 16.811915 0.000000 0.000000 0.000000 28.086916 7.872543 58.190432 0.000001 3.162842 0.000015 -16.303846 -3.021913 9.938307 -22.319996 4.616049 2.964458 9.813045 -27.713935 -20.187884 4.764089 -23.407135 -6.786993 -0.000000 0.000001 -0.000000 1.148877 -0.266912 17.459135 0.984711 -2.865939 37.918236 0.000002 -0.000002 -0.000001 0.390233 -4.036152 21.065225 1.179157 -3.099098 41.653885 0.000002 -0.000001 0.000001 -0.617055 -1.495127 21.700909 0.595696 -2.280873 29.270509 -0.000002 0.000000 0.000002 1.015397 -5.750889 19.977491 0.318385 -1.694009 21.287427 -0.000000 0.000003 0.000005 -18.074241 14.987938 12.565902 23.521109 1.044051 4.652565 -1.823631 -11.724565 -10.421933 -5.365364 0.000002 -0.000001 -0.000000 0.000001 -0.000000 -0.129120 -10.173981 5.551268 18.881831 -9.650897 -6.755446 -11.934422 -15.326707 3.835076 -6.952396 0.000006 -0.000001 -0.000000 0.000001 0.000000 
-2.402431 99.553741 2.997936 -6.052115 6.327979 -1.010917 2.671862 1.553514 2.811587 2.323627 0.402818 2.709165 0.000000 0.000000 0.000000 1.868223 0.402406 2.651738 11.576150 -2.092928 -0.883112 0.830123 -7.486982 -5.921343 0.000001 -0.000000 -0.000000 0.973022 -16.881868 -12.893316 0.000000 0.000000 0.000000 1.489841 -0.193286 -71.539101 -0.000003 -0.000000 0.000006 -33.441412 -2.085273 -5.380677 -0.610935 2.223750 4.844135 11.771025 25.366863 17.305765 -13.852444 3.618602 9.046409 -0.000003 -0.000005 0.000003 0.109644 -0.882556 -8.256113 0.267706 1.752371 -17.370351 -0.000001 -0.000001 -0.000000 -0.045301 2.842771 -16.552345 0.269396 1.757778 -17.425716 -0.000001 -0.000000 -0.000001 0.096607 3.562968 -21.660794 0.386228 2.093748 -20.900975 0.000000 -0.000001 0.000001 0.994178 5.653272 -27.663460 0.269990 1.759660 -17.445025 0.000000 0.000001 -0.000000 0.974404 8.574773 16.795625 0.000000 0.000000 0.000000 27.644525 6.868318 58.342130 0.000001 2.537500 0.000002 -14.582065 -4.211717 10.110765 -21.901203 4.412102 1.458873 9.977214 -27.585628 -19.715645 3.995914 -23.458920 -7.260576 0.000003 0.000001 -0.000000 1.225528 -0.253451 15.752073 0.931940 -2.796950 36.850032 -0.000000 0.000003 -0.000000 0.391781 -4.052726 19.475852 1.103356 -3.011859 40.232048 0.000002 0.000002 0.000002 -0.553185 -1.507923 20.499312 0.554135 -2.205147 28.208613 -0.000001 -0.000000 -0.000001 0.940687 -5.715205 18.308474 0.302336 -1.652254 20.737750 -0.000001 -0.000001 0.000002 -18.009228 15.023117 12.550173 23.281350 0.869363 4.587352 -1.761422 -11.002403 -10.370951 -5.353483 -0.000005 -0.000000 0.000000 -0.000000 -0.000000 -0.330717 -10.172844 5.410017 18.659921 -9.667141 -6.679214 -11.751589 -14.696064 3.875948 -6.960360 0.000004 0.000001 -0.000000 0.000000 0.000000 
-2.351158 99.619354 2.958087 -5.817985 5.718740 -1.121853 2.655000 1.543259 2.804350 2.374961 0.388697 2.715268 0.000000 0.000000 0.000000 1.900021 0.387848 2.652638 11.317117 -1.943499 -0.825330 0.529280 -6.811789 -5.583146 0.000000 0.000000 0.000000 0.974775 -16.968722 -12.889545 0.000000 0.000000 0.000000 1.560686 0.185205 -71.747804 -0.000002 0.000001 0.000013 -32.970587 -1.827782 -5.223739 -0.552299 2.228803 4.808841 11.764080 25.361976 17.329372 -13.854433 3.624079 9.044336 0.000002 -0.000001 0.000002 0.108348 -0.885830 -8.232166 0.267667 1.752256 -17.369227 -0.000001 0.000000 -0.000000 -0.041762 2.853406 -16.534408 0.269273 1.757363 -17.421557 0.000003 0.000000 -0.000003 0.096943 3.563570 -21.656001 0.386235 2.093785 -20.901352 -0.000001 -0.000000 -0.000001 0.994154 5.654194 -27.655639 0.269978 1.759619 -17.444612 -0.000001 -0.000001 0.000001 0.968010 8.730539 16.828625 0.000000 0.000000 0.000000 26.972492 5.818283 58.456113 0.000001 1.888794 -0.000007 -13.024997 -5.397796 10.195395 -21.244170 4.286144 0.432267 10.018521 -27.381873 -19.635722 3.177371 -23.577876 -7.636039 0.000001 0.000001 0.000001 1.298122 -0.326180 14.800257 0.883090 -2.730637 35.836910 -0.000001 0.000001 -0.000002 0.397418 -4.079441 18.748818 1.034157 -2.928218 38.896500 -0.000003 0.000003 -0.000001 -0.516333 -1.548216 20.026340 0.518661 -2.137752 27.272447 0.000000 -0.000002 0.000003 0.884372 -5.600509 17.801935 0.288134 -1.614254 20.239357 -0.000001 0.000001 -0.000003 -17.964393 15.054292 12.555767 23.067355 0.684729 4.534501 -1.705902 -10.249144 -10.322007 -5.341527 -0.000001 -0.000003 -0.000001 0.000001 0.000000 -0.543971 -10.166357 5.282533 18.450481 -9.685832 -6.588943 -11.568597 -14.040980 3.905463 -6.971403 0.000004 0.000001 0.000001 0.000000 0.000000 
-2.305431 99.679291 2.910978 -5.589645 5.088177 -1.249453 2.640635 1.536110 2.804915 2.427193 0.378847 2.725930 0.000000 0.000000 0.000000 1.933558 0.377381 2.658370 11.059853 -1.796445 -0.761483 0.199262 -6.142646 -5.250599 0.000000 -0.000000 0.000000 0.979850 -17.054149 -12.860017 0.000000 0.000000 0.000000 1.661559 0.422349 -71.953837 -0.000001 -0.000005 0.000007 -32.604553 -1.639572 -5.088880 -0.553113 2.206860 4.797488 11.767928 25.364587 17.316172 -13.848142 3.617908 9.034901 -0.000002 0.000001 -0.000001 0.100601 -0.899186 -8.186680 0.267643 1.752164 -17.368254 -0.000001 0.000001 0.000000 -0.043086 2.846212 -16.498737 0.269214 1.757186 -17.419696 0.000000 0.000000 0.000001 0.095269 3.557919 -21.627299 0.386273 2.093883 -20.902462 -0.000004 0.000000 0.000002 0.986596 5.644294 -27.628665 0.269857 1.759224 -17.440596 0.000003 -0.000001 0.000001 0.957082 8.904101 16.894348 0.000000 0.000000 0.000000 26.167807 4.868358 58.493863 -0.000005 1.292182 -0.000005 -11.639622 -6.491778 10.118078 -20.366818 4.247772 -0.132286 9.970097 -27.123530 -19.856031 2.350975 -23.738293 -7.908052 -0.000000 0.000001 0.000001 1.366369 -0.470806 14.511888 0.837447 -2.666382 34.867644 -0.000001 -0.000000 -0.000004 0.409224 -4.113120 18.800325 0.971145 -2.848453 37.646152 -0.000000 0.000000 -0.000000 -0.501839 -1.610845 20.207798 0.488635 -2.078502 26.456094 -0.000001 0.000000 0.000002 0.846164 -5.427108 18.357503 0.274980 -1.578107 19.766941 0.000000 0.000003 -0.000000 -17.942487 15.083153 12.586015 22.883246 0.495661 4.492788 -1.659996 -9.482692 -10.275862 -5.330281 0.000006 0.000002 -0.000000 0.000001 -0.000000 -0.764463 -10.154657 5.170639 18.254654 -9.706949 -6.483670 -11.387818 -13.370164 3.922667 -6.984057 0.000006 0.000001 -0.000000 -0.000001 -0.000000 
